<?xml version="1.0" standalone="no"?>
<!DOCTYPE svg PUBLIC "-//W3C//DTD SVG 20010904//EN"
 "http://www.w3.org/TR/2001/REC-SVG-20010904/DTD/svg10.dtd">
<svg version="1.0" xmlns="http://www.w3.org/2000/svg"
 width="800.000000pt" height="800.000000pt" viewBox="0 0 800.000000 800.000000"
 preserveAspectRatio="xMidYMid meet">
<metadata>
Created by potrace 1.11, written by Peter Selinger 2001-2013
</metadata>
<g transform="translate(0.000000,800.000000) scale(0.100000,-0.100000)"
fill="#000000" stroke="none">
<path d="M4450 7435 c-1 -38 -1 -211 -1 -383 0 -173 -3 -312 -6 -309 -2 3 -9
23 -14 44 -16 61 -17 68 -19 71 -2 1 -3 5 -5 10 -18 64 -88 168 -161 239 -66
64 -193 143 -230 143 -11 0 -24 3 -28 7 -15 16 -97 29 -193 32 -92 2 -101 1
-105 -17 -5 -20 -2 -158 5 -202 24 -151 112 -300 239 -402 44 -37 136 -89 179
-102 13 -5 29 -10 34 -11 6 -2 20 -6 33 -9 13 -3 33 -8 45 -12 37 -12 211 -12
219 0 9 13 4 -538 -5 -599 -21 -141 -124 -336 -228 -430 -80 -73 -249 -180
-249 -159 0 4 -6 1 -14 -5 -39 -33 -163 -53 -328 -56 l-127 -1 -62 37 c-34 21
-90 47 -123 59 -34 12 -68 25 -76 28 -21 8 -20 7 -70 16 -25 5 -54 10 -65 13
-11 2 -60 6 -110 9 -49 2 -97 6 -105 7 -28 6 -95 30 -106 38 -6 5 -13 7 -16 4
-3 -3 -13 4 -23 15 -10 11 -22 20 -27 20 -23 0 -117 115 -141 171 l-14 35 92
1 c50 0 121 8 156 17 71 18 217 86 256 120 106 90 173 185 214 304 29 84 33
108 33 217 1 113 6 106 -89 105 -229 -3 -398 -86 -547 -269 -10 -12 -18 -24
-18 -27 0 -3 -8 -18 -19 -32 -48 -69 -92 -249 -86 -356 2 -35 0 -45 -6 -33
-11 18 -22 124 -19 172 3 39 3 53 -2 98 -3 21 -1 40 2 42 4 3 4 22 1 42 -4 21
-4 49 -1 63 3 13 3 46 0 72 -4 30 -2 49 4 52 7 3 6 5 -1 5 -9 1 -10 8 -4 24 5
12 5 31 1 42 -4 11 -4 31 0 44 3 13 3 46 0 72 -4 31 -2 50 4 53 7 3 6 5 -1 5
-9 1 -10 8 -4 24 5 12 5 31 1 42 -4 11 -4 31 -1 45 4 14 4 43 1 65 l-5 40
-235 0 -234 0 0 -227 c0 -125 -3 -224 -6 -220 -4 4 -12 32 -19 62 -43 181
-219 376 -391 435 -3 1 -12 4 -20 8 -51 20 -99 29 -155 30 -36 1 -65 5 -65 8
0 5 -42 3 -85 -4 -18 -4 -20 -12 -21 -97 -1 -147 32 -259 109 -375 47 -70 73
-97 148 -157 58 -47 170 -99 255 -119 58 -14 225 -20 239 -9 7 6 10 -42 11
-139 1 -134 7 -223 18 -276 18 -87 72 -227 106 -275 12 -17 18 -30 13 -30 -4
0 -3 -4 2 -8 6 -4 29 -32 53 -64 40 -52 167 -178 179 -178 4 0 21 -11 39 -25
18 -14 37 -25 42 -25 6 0 12 -3 14 -8 8 -20 204 -94 280 -107 65 -11 100 -14
168 -16 211 -6 385 -133 443 -324 8 -27 16 -57 17 -65 5 -56 5 -650 0 -650 -4
0 -34 11 -68 25 -59 24 -204 65 -287 81 -22 4 -364 9 -760 11 -396 2 -721 6
-724 9 -3 2 6 12 19 21 95 67 199 237 231 378 11 52 14 192 5 235 -3 14 -11
49 -17 78 -7 28 -16 52 -21 52 -4 0 -7 3 -6 8 5 14 -46 107 -88 162 -43 58
-118 130 -133 130 -4 0 -32 -24 -61 -52 -285 -285 -272 -704 30 -985 l35 -32
-90 3 c-49 3 -97 7 -105 10 -8 3 -26 8 -40 10 -101 20 -225 73 -320 139 -102
72 -280 275 -280 321 0 9 -4 16 -8 16 -8 0 -21 29 -57 131 -26 75 -41 161 -44
250 -1 28 -28 43 -52 29 -7 -5 -22 -4 -35 0 -12 5 -25 6 -28 3 -8 -8 -84 -8
-92 0 -3 3 -17 2 -30 -3 -13 -5 -26 -5 -28 -1 -3 5 -24 5 -46 1 -22 -4 -40 -4
-40 1 0 4 -13 4 -30 -1 -16 -5 -30 -5 -30 -1 0 4 -14 6 -30 3 -28 -4 -36 -17
-32 -53 1 -3 3 -36 7 -74 3 -37 8 -82 11 -99 4 -17 7 -41 7 -53 1 -13 5 -23
10 -23 4 0 5 -4 2 -10 -3 -5 -1 -18 4 -28 5 -10 12 -29 14 -43 4 -23 9 -40 27
-84 4 -11 18 -45 29 -75 31 -79 115 -224 174 -300 69 -89 189 -207 281 -274
42 -31 76 -58 76 -59 0 -1 -42 -2 -93 -3 -107 -1 -150 -8 -226 -36 -205 -77
-356 -245 -411 -459 -23 -89 -27 -254 -6 -262 18 -7 191 -1 223 7 13 3 31 8
40 10 163 40 336 175 405 316 7 14 15 27 18 30 9 8 50 133 56 170 3 19 7 76 9
125 4 107 2 100 17 87 38 -31 277 -134 341 -147 10 -2 26 -6 35 -9 30 -9 84
-19 182 -31 30 -4 401 -8 825 -9 562 -2 776 -5 791 -14 12 -6 23 -9 26 -7 7 7
131 -31 200 -61 151 -67 269 -158 381 -295 20 -25 37 -51 37 -58 0 -6 4 -11 9
-11 5 0 11 -8 15 -17 3 -10 16 -36 29 -59 51 -89 92 -219 104 -328 9 -90 9
-874 0 -941 -6 -46 -10 -67 -21 -113 -8 -31 -57 -157 -64 -162 -4 -3 -18 -25
-31 -50 -29 -55 -90 -131 -151 -188 -49 -47 -171 -132 -189 -132 -6 0 -11 -5
-11 -12 0 -6 -3 -9 -6 -5 -4 3 -24 -3 -46 -14 -22 -11 -48 -22 -57 -24 -9 -2
-43 -11 -76 -19 -33 -9 -96 -19 -140 -21 -174 -11 -212 -14 -260 -20 -27 -3
-68 -10 -90 -16 -22 -6 -47 -12 -55 -14 -38 -8 -178 -61 -238 -90 -126 -61
-254 -155 -363 -264 -58 -58 -111 -116 -118 -129 l-12 -22 2086 0 c1666 0
2085 3 2079 13 -9 14 -51 72 -74 100 -12 16 -74 70 -158 138 -29 24 -186 91
-238 102 -42 9 -61 18 -72 37 -63 101 -220 270 -251 270 -5 0 -11 4 -13 8 -12
30 -212 121 -298 136 -8 2 -26 6 -40 9 -23 6 -90 14 -185 21 -155 13 -306 117
-374 259 -18 38 -36 85 -39 105 -9 47 -7 532 1 592 10 68 14 84 39 163 12 39
27 75 31 78 5 3 8 8 7 10 -1 5 37 88 53 114 118 190 281 323 522 425 11 5 38
14 60 20 22 6 47 14 55 17 20 8 21 8 120 28 47 9 153 19 236 22 l151 6 -2 -74
c-1 -41 2 -92 6 -114 4 -22 9 -53 12 -70 11 -65 59 -172 106 -235 71 -96 194
-192 289 -226 26 -9 54 -19 62 -22 61 -22 256 -37 281 -21 11 6 15 140 6 194
-31 187 -133 351 -279 451 -23 16 -45 31 -48 34 -10 11 -146 60 -180 65 -19 4
-36 8 -39 11 -5 4 44 5 334 5 650 -2 676 -1 848 34 102 20 311 112 407 179
107 74 227 183 285 261 17 22 33 42 36 45 15 12 98 151 128 214 36 76 89 231
97 286 3 19 7 42 10 50 13 38 26 768 14 771 -18 4 -462 3 -468 -1 -4 -3 -7
-153 -8 -335 -1 -306 -2 -336 -23 -415 -29 -113 -101 -259 -156 -316 -5 -6
-26 -29 -46 -51 -107 -118 -303 -218 -469 -238 -79 -10 -470 -13 -470 -4 0 4
10 7 23 7 97 1 256 76 354 167 61 56 153 178 153 202 0 5 6 19 13 33 15 29 37
107 44 160 7 50 6 181 -2 188 -8 9 -155 7 -210 -1 -122 -19 -257 -89 -351
-182 -111 -111 -168 -222 -191 -375 -4 -25 -7 -81 -6 -125 l0 -80 -381 0
c-353 -1 -470 -5 -586 -21 -25 -4 -58 -7 -75 -8 l-30 -1 0 165 c-1 159 5 217
27 270 58 143 145 231 278 284 65 26 70 27 246 31 214 5 302 17 430 61 309
104 552 310 697 592 47 90 105 249 109 296 4 50 12 14 11 -53 -1 -82 -4 -80
119 -76 368 12 645 298 643 665 l0 95 -110 0 c-142 -1 -240 -29 -370 -108 -22
-14 -131 -120 -157 -154 -34 -44 -109 -204 -107 -229 0 -3 -1 -7 -3 -9 -6 -7
0 83 6 94 4 5 2 12 -3 15 -5 4 -6 18 -2 34 5 15 5 36 1 47 -4 11 -5 24 -2 30
9 14 10 45 2 45 -3 0 -4 22 0 48 3 27 3 61 -1 75 -4 15 -4 29 1 32 13 8 -2 55
-19 56 -95 7 -451 2 -452 -6 0 -5 -2 -109 -3 -230 -2 -192 -5 -230 -25 -300
-55 -196 -186 -357 -366 -448 -92 -46 -145 -64 -223 -74 l-44 -5 56 56 c76 75
156 207 170 277 2 8 6 25 10 39 13 49 23 129 14 124 -4 -3 -4 6 1 19 6 14 8
27 6 29 -2 2 -6 24 -9 48 -14 113 -48 204 -109 295 -42 63 -138 165 -156 165
-18 0 -135 -126 -170 -184 -38 -63 -79 -170 -89 -231 -13 -81 -4 -237 16 -301
39 -119 101 -218 190 -301 54 -51 54 -51 -128 -54 -74 -1 -144 -6 -155 -10
-11 -3 -38 -9 -60 -12 -70 -10 -244 -79 -253 -99 -2 -5 -12 -8 -23 -8 -10 0
-19 -4 -19 -10 0 -5 -7 -10 -15 -10 -8 0 -15 -4 -15 -8 0 -4 -14 -16 -32 -27
-31 -18 -141 -123 -185 -177 -95 -117 -182 -327 -198 -480 -2 -18 -4 -153 -4
-300 -1 -165 -5 -268 -11 -268 -14 0 -109 -60 -189 -120 -51 -38 -94 -76 -152
-132 -40 -40 -59 -47 -59 -23 0 43 -150 296 -225 380 -57 65 -54 30 -55 582
-1 301 -6 529 -12 554 -5 24 -11 51 -14 59 -15 60 -24 103 -22 104 2 1 32 8
68 15 121 23 390 129 390 153 0 4 6 8 13 8 7 0 23 9 35 20 12 11 25 20 30 20
5 0 17 9 27 20 10 11 24 20 32 20 8 0 11 5 8 10 -3 6 -1 10 5 10 16 0 180 170
225 234 45 63 90 139 105 174 6 13 21 48 35 78 30 65 62 176 80 274 8 47 17
155 17 219 0 35 3 59 7 52 11 -18 141 -15 237 4 101 21 207 72 286 137 35 29
65 56 66 60 2 5 9 14 16 21 26 28 76 102 76 114 0 7 4 13 9 13 5 0 12 11 15
25 3 13 10 34 15 47 13 34 12 33 26 92 17 71 18 233 2 239 -28 10 -197 -1
-256 -17 -144 -39 -238 -100 -358 -231 -42 -46 -117 -207 -127 -272 -10 -64
-13 57 -14 544 0 313 -1 575 -1 584 -1 14 -28 16 -236 15 l-235 0 0 -71z m477
-1127 c-3 -8 -6 -5 -6 6 -1 11 2 17 5 13 3 -3 4 -12 1 -19z"/>
<path d="M3609 6144 c-94 -28 -175 -130 -184 -231 -5 -54 17 -143 43 -175 70
-86 121 -113 217 -113 85 1 99 4 150 37 147 94 170 290 49 412 -72 72 -178 99
-275 70z"/>
<path d="M1160 5957 c-25 -5 -57 -18 -72 -28 -14 -10 -29 -19 -32 -19 -16 0
-68 -71 -86 -118 -65 -170 45 -349 225 -366 133 -12 257 81 286 215 40 187
-130 355 -321 316z"/>
<path d="M2420 4859 c-105 -20 -194 -103 -216 -202 -31 -132 45 -271 171 -316
47 -17 135 -21 153 -8 6 5 12 7 12 3 0 -3 21 5 48 18 74 38 122 99 139 176 12
56 9 115 -8 155 -7 17 -13 33 -13 36 -1 4 -17 25 -36 48 -59 69 -165 107 -250
90z"/>
<path d="M1909 3474 c-80 -24 -111 -46 -159 -114 -34 -47 -47 -94 -45 -161 9
-261 358 -349 498 -126 10 15 23 53 30 84 27 119 -31 240 -143 298 -47 24
-132 33 -181 19z"/>
</g>
</svg>
