<?xml version="1.0" encoding="UTF-8" standalone="no"?>
<!-- Created with Inkscape (http://www.inkscape.org/) -->

<svg
   xmlns:dc="http://purl.org/dc/elements/1.1/"
   xmlns:cc="http://creativecommons.org/ns#"
   xmlns:rdf="http://www.w3.org/1999/02/22-rdf-syntax-ns#"
   xmlns:svg="http://www.w3.org/2000/svg"
   xmlns="http://www.w3.org/2000/svg"
   xmlns:sodipodi="http://sodipodi.sourceforge.net/DTD/sodipodi-0.dtd"
   xmlns:inkscape="http://www.inkscape.org/namespaces/inkscape"
   width="87.961334"
   height="51.193333"
   viewBox="0 0 23.273102 13.544903"
   version="1.1"
   id="svg154"
   inkscape:version="0.92.4 (5da689c313, 2019-01-14)"
   sodipodi:docname="logo.svg">
  <defs
     id="defs148">
    <clipPath
       clipPathUnits="userSpaceOnUse"
       id="clipPath120">
      <path
         d="M 0,595.276 H 841.89 V 0 H 0 Z"
         id="path118"
         inkscape:connector-curvature="0" />
    </clipPath>
  </defs>
  <sodipodi:namedview
     id="base"
     pagecolor="#ffffff"
     bordercolor="#666666"
     borderopacity="1.0"
     inkscape:pageopacity="0.0"
     inkscape:pageshadow="2"
     inkscape:zoom="0.35"
     inkscape:cx="6.8377966"
     inkscape:cy="-500.11753"
     inkscape:document-units="mm"
     inkscape:current-layer="layer1"
     showgrid="false"
     units="px"
     fit-margin-top="0"
     fit-margin-left="0"
     fit-margin-right="0"
     fit-margin-bottom="0"
     inkscape:window-width="1920"
     inkscape:window-height="1013"
     inkscape:window-x="-9"
     inkscape:window-y="-9"
     inkscape:window-maximized="1" />
  <metadata
     id="metadata151">
    <rdf:RDF>
      <cc:Work
         rdf:about="">
        <dc:format>image/svg+xml</dc:format>
        <dc:type
           rdf:resource="http://purl.org/dc/dcmitype/StillImage" />
        <dc:title></dc:title>
      </cc:Work>
    </rdf:RDF>
  </metadata>
  <g
     inkscape:label="圖層 1"
     inkscape:groupmode="layer"
     id="layer1"
     transform="translate(-2.7265473,-2.9656472)">
    <g
       transform="matrix(0.35277777,0,0,-0.35277777,-134.23473,114.72822)"
       id="g114">
      <g
         id="g116"
         clip-path="url(#clipPath120)">
        <g
           id="g122"
           transform="translate(443.6367,286.0953)">
          <path
             d="m 0,0 v 17.17 h 8.656 v 2.628 H 0 v 10.914 h -1.914 c -0.134,-3.81 -1.024,-6.771 -2.667,-8.885 -1.109,-1.41 -2.724,-2.295 -4.846,-2.657 v -2 h 4.656 V -0.8 c 0,-1.962 0.624,-3.547 1.871,-4.757 1.248,-1.209 2.976,-1.814 5.186,-1.814 2.4,0 4.352,0.862 5.857,2.586 1.503,1.723 2.313,4.366 2.428,7.928 H 8.656 C 8.504,0.381 7.971,-1.6 7.057,-2.8 6.143,-4 5.038,-4.6 3.743,-4.6 2.657,-4.6 1.762,-4.204 1.057,-3.414 0.353,-2.624 0,-1.485 0,0 m -10.487,6.845 c 0,8.023 -6.504,14.527 -14.527,14.527 -8.023,0 -14.528,-6.504 -14.528,-14.527 0,-8.024 6.505,-14.528 14.528,-14.528 8.023,0 14.527,6.504 14.527,14.528 M -31.904,4.821 c 0,0.438 0.355,0.793 0.793,0.793 0.438,0 0.792,-0.355 0.792,-0.793 0,-0.437 -0.354,-0.792 -0.792,-0.792 -0.438,0 -0.793,0.355 -0.793,0.792 M -36.73,4.288 c -0.076,0.609 0.104,1.225 0.549,1.67 0.445,0.445 1.061,0.625 1.67,0.549 0.075,-0.608 -0.104,-1.225 -0.55,-1.67 -0.445,-0.444 -1.061,-0.625 -1.669,-0.549 m 3.408,8.601 c 0.438,0 0.793,-0.355 0.793,-0.792 0,-0.438 -0.355,-0.793 -0.793,-0.793 -0.437,0 -0.792,0.355 -0.792,0.793 0,0.437 0.355,0.792 0.792,0.792 m 2.414,0.451 c -0.608,-0.076 -1.224,0.103 -1.669,0.549 -0.445,0.446 -0.625,1.061 -0.549,1.67 0.608,0.075 1.224,-0.104 1.67,-0.55 0.444,-0.445 0.625,-1.06 0.548,-1.669 m 4.838,0.12 c 0.437,0 0.792,-0.355 0.792,-0.792 0,-0.438 -0.355,-0.793 -0.792,-0.793 -0.438,0 -0.793,0.355 -0.793,0.793 0,0.437 0.355,0.792 0.793,0.792 m 2.203,1.085 c -0.608,-0.076 -1.224,0.104 -1.669,0.55 -0.445,0.445 -0.625,1.061 -0.549,1.669 0.608,0.076 1.224,-0.104 1.67,-0.549 0.445,-0.445 0.625,-1.061 0.548,-1.67 m 3.639,1.031 c 0.077,-0.609 -0.103,-1.225 -0.548,-1.67 -0.446,-0.445 -1.062,-0.625 -1.67,-0.549 -0.076,0.609 0.104,1.224 0.549,1.67 0.445,0.445 1.061,0.625 1.669,0.549 m 5.68,-2.771 c 0.075,-0.608 -0.104,-1.224 -0.549,-1.669 -0.446,-0.445 -1.062,-0.625 -1.671,-0.549 -0.075,0.608 0.105,1.224 0.55,1.67 0.445,0.445 1.061,0.625 1.67,0.548 m -2.123,-4.5 c 0.076,-0.609 -0.104,-1.225 -0.549,-1.67 -0.446,-0.446 -1.061,-0.625 -1.671,-0.549 -0.075,0.608 0.105,1.225 0.551,1.67 0.444,0.445 1.06,0.625 1.669,0.549 m -0.664,-3.622 h -3.538 c -2.03,0 -3.448,-1.256 -3.448,-3.052 V 0.667 h -0.016 C -24.338,0.658 -24.338,0.65 -24.339,0.643 h 0.018 c 0,-0.747 0.608,-1.356 1.355,-1.356 v -0.003 c 0.96,-0.024 1.794,-0.566 2.229,-1.359 0.669,-0.111 1.241,-0.513 1.58,-1.071 h -12.239 c 0.713,0.975 1.862,1.612 3.16,1.612 v -0.004 0.004 c 1.394,0 2.528,1.135 2.528,2.529 v 2.056 c 0,1.57 -1.277,2.847 -2.847,2.847 h -3.822 c -2.236,0 -4.054,1.819 -4.054,4.054 h 1.387 c 0,-1.471 1.196,-2.667 2.667,-2.667 h 0.097 c -0.484,0.376 -0.792,0.94 -0.793,1.569 10e-4,0.629 0.309,1.192 0.793,1.568 0.484,-0.376 0.792,-0.939 0.792,-1.568 0,-0.629 -0.308,-1.193 -0.792,-1.569 h 3.725 c 0.61,0 1.188,-0.132 1.712,-0.365 v 1.7 c 0,0.752 -0.611,1.363 -1.363,1.363 -1.48,0 -2.685,1.205 -2.685,2.685 v 2.638 h 1.387 v -2.638 c 0,-0.142 0.039,-0.272 0.081,-0.4 -0.064,0.596 0.11,1.197 0.546,1.633 0.445,0.445 1.061,0.625 1.669,0.549 0.076,-0.608 -0.103,-1.225 -0.549,-1.67 -0.443,-0.443 -1.054,-0.62 -1.659,-0.548 0.181,-0.5 0.649,-0.862 1.21,-0.862 0.572,0 1.104,-0.176 1.545,-0.477 h 0.511 c 1.269,0 2.3,1.032 2.3,2.3 v 4.215 h 1.387 v -4.215 c 0,-1.853 -1.375,-3.385 -3.158,-3.644 0.105,-0.291 0.165,-0.603 0.165,-0.929 V 5.926 c 0.368,-0.396 0.66,-0.861 0.856,-1.375 0.328,0.358 0.723,0.661 1.169,0.902 v 1.333 c 0,1.531 1.247,2.778 2.778,2.778 h 0.408 c 0.049,0 0.09,0.024 0.138,0.028 -0.471,0.376 -0.771,0.928 -0.772,1.548 0.001,0.63 0.308,1.192 0.793,1.569 0.482,-0.377 0.792,-0.939 0.792,-1.569 0,-0.614 -0.297,-1.161 -0.761,-1.537 1.086,0.1 1.947,0.987 1.947,2.098 v 1.039 h 1.387 v -1.039 c 0,-1.943 -1.58,-3.524 -3.524,-3.524 h -0.408 c -0.767,0 -1.391,-0.624 -1.391,-1.391 V 5.949 c 0.372,0.076 0.762,0.12 1.171,0.12 h 3.538 c 1.302,0 2.359,1.059 2.359,2.36 v 1.658 h 1.388 V 8.429 c 0,-2.066 -1.682,-3.746 -3.747,-3.746 m -12.329,4.98 c 0.438,0 0.792,-0.355 0.792,-0.793 0,-0.437 -0.354,-0.792 -0.792,-0.792 -0.438,0 -0.793,0.355 -0.793,0.792 0,0.438 0.355,0.793 0.793,0.793 m 9.68,-6.667 c -0.445,0.445 -0.625,1.062 -0.549,1.669 0.609,0.076 1.223,-0.103 1.67,-0.549 0.445,-0.445 0.625,-1.061 0.549,-1.67 -0.608,-0.075 -1.225,0.104 -1.67,0.55 m -34.845,-9.967 h 15.228 v 2.143 h -3.029 c -0.667,0 -1.219,0.19 -1.657,0.571 -0.305,0.267 -0.457,0.715 -0.457,1.343 V 20.113 L -55.4,19.798 v -2.142 h 2.2 c 1.2,0 2.104,-0.272 2.714,-0.814 0.609,-0.543 0.914,-1.348 0.914,-2.414 V -2.428 c 0,-0.781 -0.196,-1.377 -0.586,-1.786 -0.39,-0.41 -1.005,-0.614 -1.842,-0.614 h -2.829 z m 10.293,34.153 c 0,1.95 -1.58,3.53 -3.53,3.53 -1.949,0 -3.529,-1.58 -3.529,-3.53 0,-1.949 1.58,-3.529 3.529,-3.529 1.95,0 3.53,1.58 3.53,3.529"
             style="fill:#a9ad00;fill-opacity:1;fill-rule:nonzero;stroke:none"
             id="path124"
             inkscape:connector-curvature="0" />
        </g>
      </g>
    </g>
  </g>
</svg>
