<?xml version="1.0" encoding="UTF-8" standalone="no"?>
<!-- Created with Inkscape (http://www.inkscape.org/) -->

<svg
   xmlns:dc="http://purl.org/dc/elements/1.1/"
   xmlns:cc="http://creativecommons.org/ns#"
   xmlns:rdf="http://www.w3.org/1999/02/22-rdf-syntax-ns#"
   xmlns:svg="http://www.w3.org/2000/svg"
   xmlns="http://www.w3.org/2000/svg"
   xmlns:sodipodi="http://sodipodi.sourceforge.net/DTD/sodipodi-0.dtd"
   xmlns:inkscape="http://www.inkscape.org/namespaces/inkscape"
   version="1.1"
   id="svg2"
   xml:space="preserve"
   width="238.94653"
   height="52.839733"
   viewBox="0 0 238.94653 52.839733"
   sodipodi:docname="iot_logo_en.svg"
   inkscape:version="0.92.4 (5da689c313, 2019-01-14)"><metadata
     id="metadata8"><rdf:RDF><cc:Work
         rdf:about=""><dc:format>image/svg+xml</dc:format><dc:type
           rdf:resource="http://purl.org/dc/dcmitype/StillImage" /><dc:title></dc:title></cc:Work></rdf:RDF></metadata><defs
     id="defs6"><clipPath
       clipPathUnits="userSpaceOnUse"
       id="clipPath18"><path
         d="M 0,595.276 H 841.89 V 0 H 0 Z"
         id="path16"
         inkscape:connector-curvature="0" /></clipPath></defs><sodipodi:namedview
     pagecolor="#ffffff"
     bordercolor="#666666"
     borderopacity="1"
     objecttolerance="10"
     gridtolerance="10"
     guidetolerance="10"
     inkscape:pageopacity="0"
     inkscape:pageshadow="2"
     inkscape:window-width="1920"
     inkscape:window-height="1013"
     id="namedview4"
     showgrid="false"
     fit-margin-top="0"
     fit-margin-left="0"
     fit-margin-right="0"
     fit-margin-bottom="0"
     inkscape:zoom="1.682015"
     inkscape:cx="206.55674"
     inkscape:cy="181.77427"
     inkscape:window-x="-9"
     inkscape:window-y="-9"
     inkscape:window-maximized="1"
     inkscape:current-layer="g10" /><g
     id="g10"
     inkscape:groupmode="layer"
     inkscape:label="iot_logo_en"
     transform="matrix(1.3333333,0,0,-1.3333333,-434.40999,441.07639)"><g
       id="g12"><g
         id="g14"
         clip-path="url(#clipPath18)"><g
           id="g20"
           transform="translate(381.2075,300.0953)"><path
             d="m 0,0 v 17.17 h 8.656 v 2.628 H 0 v 10.914 h -1.914 c -0.134,-3.81 -1.023,-6.771 -2.667,-8.885 -1.109,-1.41 -2.725,-2.296 -4.846,-2.657 v -2 h 4.656 V -0.8 c 0,-1.962 0.624,-3.547 1.871,-4.757 1.247,-1.209 2.976,-1.814 5.186,-1.814 2.399,0 4.351,0.862 5.856,2.586 1.505,1.723 2.314,4.366 2.429,7.927 H 8.656 C 8.504,0.381 7.971,-1.6 7.057,-2.8 6.143,-4 5.038,-4.6 3.743,-4.6 2.657,-4.6 1.762,-4.205 1.057,-3.414 0.352,-2.624 0,-1.485 0,0 m -10.487,6.845 c 0,8.023 -6.504,14.527 -14.527,14.527 -8.023,0 -14.528,-6.504 -14.528,-14.527 0,-8.024 6.505,-14.528 14.528,-14.528 8.023,0 14.527,6.504 14.527,14.528 M -31.904,4.821 c 0,0.438 0.355,0.793 0.793,0.793 0.438,0 0.792,-0.355 0.792,-0.793 0,-0.437 -0.354,-0.792 -0.792,-0.792 -0.438,0 -0.793,0.355 -0.793,0.792 M -36.73,4.288 c -0.076,0.609 0.104,1.225 0.549,1.67 0.445,0.445 1.061,0.625 1.67,0.549 0.075,-0.608 -0.104,-1.225 -0.55,-1.67 -0.445,-0.445 -1.061,-0.625 -1.669,-0.549 m 3.408,8.601 c 0.438,0 0.793,-0.355 0.793,-0.793 0,-0.437 -0.355,-0.792 -0.793,-0.792 -0.437,0 -0.792,0.355 -0.792,0.792 0,0.438 0.355,0.793 0.792,0.793 m 2.414,0.451 c -0.608,-0.076 -1.224,0.103 -1.669,0.549 -0.445,0.445 -0.625,1.061 -0.549,1.67 0.608,0.075 1.224,-0.104 1.67,-0.55 0.444,-0.445 0.625,-1.06 0.548,-1.669 m 4.837,0.12 c 0.438,0 0.793,-0.355 0.793,-0.792 0,-0.438 -0.355,-0.793 -0.793,-0.793 -0.437,0 -0.792,0.355 -0.792,0.793 0,0.437 0.355,0.792 0.792,0.792 m 2.204,1.085 c -0.608,-0.076 -1.224,0.104 -1.669,0.55 -0.445,0.445 -0.625,1.061 -0.549,1.669 0.608,0.076 1.224,-0.104 1.67,-0.549 0.444,-0.445 0.625,-1.061 0.548,-1.67 m 3.64,1.031 c 0.076,-0.609 -0.104,-1.225 -0.549,-1.67 -0.446,-0.445 -1.062,-0.625 -1.67,-0.549 -0.076,0.609 0.104,1.224 0.549,1.67 0.445,0.445 1.061,0.625 1.67,0.549 m 5.679,-2.771 c 0.075,-0.608 -0.104,-1.224 -0.549,-1.669 -0.446,-0.445 -1.062,-0.625 -1.67,-0.549 -0.076,0.608 0.104,1.224 0.549,1.67 0.445,0.444 1.061,0.625 1.67,0.548 m -2.123,-4.5 c 0.076,-0.609 -0.104,-1.225 -0.549,-1.67 -0.446,-0.446 -1.061,-0.625 -1.67,-0.549 -0.076,0.608 0.104,1.224 0.549,1.67 0.445,0.445 1.061,0.625 1.67,0.549 m -0.664,-3.623 h -3.538 c -2.03,0 -3.448,-1.255 -3.448,-3.051 V 0.667 h -0.016 C -24.338,0.658 -24.338,0.65 -24.339,0.642 h 0.018 c 0,-0.747 0.608,-1.355 1.355,-1.355 v -0.003 c 0.96,-0.024 1.794,-0.566 2.229,-1.359 0.669,-0.111 1.241,-0.513 1.58,-1.071 h -12.239 c 0.713,0.975 1.862,1.612 3.16,1.612 v -0.004 0.004 c 1.394,0 2.528,1.134 2.528,2.529 v 2.056 c 0,1.57 -1.277,2.847 -2.847,2.847 h -3.822 c -2.236,0 -4.054,1.819 -4.054,4.054 h 1.386 c 0,-1.471 1.197,-2.667 2.668,-2.667 h 0.097 c -0.484,0.376 -0.792,0.939 -0.793,1.569 10e-4,0.629 0.309,1.191 0.793,1.568 0.484,-0.377 0.792,-0.939 0.792,-1.569 0,-0.629 -0.308,-1.192 -0.792,-1.568 h 3.725 c 0.61,0 1.188,-0.132 1.712,-0.365 v 1.7 c 0,0.752 -0.611,1.363 -1.363,1.363 -1.48,0 -2.685,1.205 -2.685,2.685 v 2.638 h 1.387 v -2.638 c 0,-0.142 0.039,-0.272 0.081,-0.4 -0.064,0.596 0.11,1.197 0.546,1.633 0.445,0.445 1.06,0.625 1.669,0.549 0.076,-0.609 -0.103,-1.225 -0.549,-1.67 -0.443,-0.443 -1.054,-0.62 -1.659,-0.548 0.181,-0.5 0.649,-0.862 1.21,-0.862 0.572,0 1.104,-0.176 1.545,-0.477 h 0.511 c 1.269,0 2.3,1.032 2.3,2.3 v 4.215 h 1.387 v -4.215 c 0,-1.853 -1.375,-3.386 -3.158,-3.644 0.105,-0.291 0.165,-0.603 0.165,-0.929 V 5.926 c 0.368,-0.396 0.66,-0.861 0.856,-1.376 0.328,0.359 0.723,0.662 1.169,0.903 v 1.333 c 0,1.531 1.247,2.778 2.778,2.778 h 0.408 c 0.049,0 0.09,0.024 0.138,0.028 -0.471,0.376 -0.772,0.928 -0.772,1.548 0,0.63 0.308,1.192 0.793,1.569 0.483,-0.377 0.792,-0.939 0.792,-1.569 0,-0.614 -0.297,-1.162 -0.761,-1.538 1.086,0.101 1.947,0.988 1.947,2.099 v 1.039 h 1.387 v -1.039 c 0,-1.943 -1.581,-3.524 -3.524,-3.524 h -0.408 c -0.767,0 -1.391,-0.624 -1.391,-1.391 V 5.949 c 0.372,0.076 0.762,0.12 1.171,0.12 h 3.538 c 1.302,0 2.36,1.059 2.36,2.36 v 1.658 h 1.387 V 8.429 c 0,-2.066 -1.681,-3.747 -3.747,-3.747 m -12.329,4.981 c 0.438,0 0.792,-0.356 0.792,-0.793 0,-0.438 -0.354,-0.792 -0.792,-0.792 -0.438,0 -0.793,0.354 -0.793,0.792 0,0.437 0.355,0.793 0.793,0.793 m 9.68,-6.667 c -0.445,0.445 -0.625,1.061 -0.549,1.669 0.608,0.076 1.224,-0.103 1.67,-0.549 0.445,-0.445 0.625,-1.061 0.549,-1.67 -0.608,-0.075 -1.225,0.104 -1.67,0.55 m -34.845,-9.967 h 15.228 v 2.143 h -3.029 c -0.667,0 -1.219,0.19 -1.657,0.571 -0.305,0.267 -0.457,0.715 -0.457,1.343 V 20.113 L -55.4,19.798 v -2.142 h 2.2 c 1.2,0 2.104,-0.272 2.714,-0.814 0.609,-0.543 0.914,-1.348 0.914,-2.415 V -2.428 c 0,-0.781 -0.196,-1.377 -0.586,-1.786 -0.39,-0.41 -1.005,-0.614 -1.842,-0.614 h -2.829 z m 10.293,34.153 c 0,1.95 -1.58,3.53 -3.53,3.53 -1.949,0 -3.529,-1.58 -3.529,-3.53 0,-1.949 1.58,-3.529 3.529,-3.529 1.95,0 3.53,1.58 3.53,3.529"
             style="fill:#a9ad00;fill-opacity:1;fill-rule:nonzero;stroke:none"
             id="path22"
             inkscape:connector-curvature="0" /></g><path
           d="m 407.711,320.673 h 1.783 v -10.147 h -1.783 z"
           style="fill:#5b6770;fill-opacity:1;fill-rule:nonzero;stroke:none"
           id="path24"
           inkscape:connector-curvature="0" /><g
           id="g26"
           transform="translate(411.9443,318.1798)"><path
             d="m 0,0 h 1.754 v -1.16 c 0.493,0.681 1.16,1.32 2.334,1.32 1.101,0 1.87,-0.537 2.276,-1.348 0.623,0.811 1.435,1.348 2.595,1.348 1.667,0 2.682,-1.059 2.682,-2.929 V -7.654 H 9.887 v 4.349 c 0,1.218 -0.566,1.87 -1.552,1.87 -0.956,0 -1.638,-0.667 -1.638,-1.899 v -4.32 H 4.943 v 4.363 c 0,1.189 -0.58,1.856 -1.55,1.856 -0.972,0 -1.639,-0.725 -1.639,-1.914 V -7.654 H 0 Z"
             style="fill:#5b6770;fill-opacity:1;fill-rule:nonzero;stroke:none"
             id="path28"
             inkscape:connector-curvature="0" /></g><g
           id="g30"
           transform="translate(425.6475,318.1798)"><path
             d="m 0,0 h 1.754 v -1.16 c 0.493,0.681 1.16,1.32 2.334,1.32 1.101,0 1.87,-0.537 2.276,-1.348 0.623,0.811 1.435,1.348 2.595,1.348 1.667,0 2.682,-1.059 2.682,-2.929 V -7.654 H 9.887 v 4.349 c 0,1.218 -0.566,1.87 -1.552,1.87 -0.956,0 -1.638,-0.667 -1.638,-1.899 v -4.32 H 4.943 v 4.363 c 0,1.189 -0.58,1.856 -1.55,1.856 -0.972,0 -1.639,-0.725 -1.639,-1.914 V -7.654 H 0 Z"
             style="fill:#5b6770;fill-opacity:1;fill-rule:nonzero;stroke:none"
             id="path32"
             inkscape:connector-curvature="0" /></g><g
           id="g34"
           transform="translate(444.5977,314.8893)"><path
             d="M 0,0 C -0.116,1.131 -0.783,2.015 -1.943,2.015 -3.016,2.015 -3.77,1.188 -3.929,0 Z m -5.668,-0.565 v 0.028 c 0,2.189 1.551,3.987 3.739,3.987 2.436,0 3.668,-1.913 3.668,-4.117 0,-0.159 -0.014,-0.319 -0.029,-0.493 h -5.624 c 0.188,-1.246 1.072,-1.942 2.203,-1.942 0.856,0 1.464,0.319 2.073,0.913 l 1.03,-0.913 c -0.726,-0.87 -1.726,-1.435 -3.132,-1.435 -2.218,0 -3.928,1.609 -3.928,3.972"
             style="fill:#5b6770;fill-opacity:1;fill-rule:nonzero;stroke:none"
             id="path36"
             inkscape:connector-curvature="0" /></g><g
           id="g38"
           transform="translate(448.0488,318.1798)"><path
             d="M 0,0 H 1.754 V -1.188 C 2.247,-0.464 2.957,0.16 4.146,0.16 5.871,0.16 6.871,-1 6.871,-2.783 V -7.654 H 5.117 v 4.349 c 0,1.189 -0.595,1.87 -1.638,1.87 -1.014,0 -1.725,-0.711 -1.725,-1.899 v -4.32 H 0 Z"
             style="fill:#5b6770;fill-opacity:1;fill-rule:nonzero;stroke:none"
             id="path40"
             inkscape:connector-curvature="0" /></g><g
           id="g42"
           transform="translate(456.3437,311.526)"><path
             d="M 0,0 0.782,1.189 C 1.609,0.565 2.508,0.247 3.29,0.247 c 0.754,0 1.189,0.318 1.189,0.826 v 0.029 c 0,0.594 -0.812,0.797 -1.71,1.073 C 1.638,2.494 0.377,2.958 0.377,4.421 v 0.03 c 0,1.449 1.203,2.333 2.725,2.333 0.957,0 2.001,-0.333 2.812,-0.869 L 5.219,4.668 C 4.479,5.117 3.696,5.393 3.059,5.393 2.377,5.393 1.985,5.074 1.985,4.625 V 4.595 C 1.985,4.044 2.813,3.813 3.711,3.523 4.827,3.175 6.088,2.667 6.088,1.291 V 1.261 C 6.088,-0.348 4.842,-1.145 3.247,-1.145 2.16,-1.145 0.957,-0.753 0,0"
             style="fill:#5b6770;fill-opacity:1;fill-rule:nonzero;stroke:none"
             id="path44"
             inkscape:connector-curvature="0" /></g><g
           id="g46"
           transform="translate(469.3926,314.8893)"><path
             d="M 0,0 C -0.116,1.131 -0.783,2.015 -1.943,2.015 -3.016,2.015 -3.77,1.188 -3.929,0 Z m -5.668,-0.565 v 0.028 c 0,2.189 1.551,3.987 3.739,3.987 2.436,0 3.668,-1.913 3.668,-4.117 0,-0.159 -0.014,-0.319 -0.029,-0.493 h -5.624 c 0.188,-1.246 1.072,-1.942 2.203,-1.942 0.856,0 1.464,0.319 2.073,0.913 l 1.03,-0.913 c -0.726,-0.87 -1.726,-1.435 -3.132,-1.435 -2.218,0 -3.928,1.609 -3.928,3.972"
             style="fill:#5b6770;fill-opacity:1;fill-rule:nonzero;stroke:none"
             id="path48"
             inkscape:connector-curvature="0" /></g><g
           id="g50"
           transform="translate(485.6309,315.5704)"><path
             d="m 0,0 v 0.029 c 0,1.971 -1.436,3.61 -3.45,3.61 -2.016,0 -3.421,-1.61 -3.421,-3.581 V 0.029 c 0,-1.971 1.434,-3.61 3.449,-3.61 C -1.406,-3.581 0,-1.971 0,0 m -8.741,0 v 0.029 c 0,2.856 2.203,5.247 5.319,5.247 3.117,0 5.291,-2.362 5.291,-5.218 V 0.029 c 0,-2.856 -2.203,-5.247 -5.319,-5.247 -3.117,0 -5.291,2.363 -5.291,5.218"
             style="fill:#5b6770;fill-opacity:1;fill-rule:nonzero;stroke:none"
             id="path52"
             inkscape:connector-curvature="0" /></g><g
           id="g54"
           transform="translate(494.1279,313.7296)"><path
             d="m 0,0 c -0.449,0.174 -1.072,0.304 -1.754,0.304 -1.101,0 -1.754,-0.449 -1.754,-1.188 v -0.029 c 0,-0.725 0.653,-1.131 1.479,-1.131 1.16,0 2.029,0.652 2.029,1.609 z m -0.043,-3.204 v 0.943 c -0.522,-0.624 -1.319,-1.102 -2.479,-1.102 -1.45,0 -2.725,0.826 -2.725,2.363 v 0.029 c 0,1.696 1.319,2.508 3.101,2.508 0.928,0 1.523,-0.131 2.118,-0.319 V 1.363 C -0.028,2.421 -0.695,3 -1.913,3 -2.769,3 -3.406,2.812 -4.103,2.522 L -4.58,3.928 c 0.841,0.377 1.667,0.638 2.913,0.638 2.262,0 3.363,-1.189 3.363,-3.233 v -4.537 z"
             style="fill:#5b6770;fill-opacity:1;fill-rule:nonzero;stroke:none"
             id="path56"
             inkscape:connector-curvature="0" /></g><g
           id="g58"
           transform="translate(497.8564,321.108)"><path
             d="m 0,0 h 1.754 v -6.32 l 3.175,3.392 H 7.06 L 4.016,-6.045 7.161,-10.582 H 5.132 L 2.827,-7.277 1.754,-8.393 v -2.189 H 0 Z"
             style="fill:#5b6770;fill-opacity:1;fill-rule:nonzero;stroke:none"
             id="path60"
             inkscape:connector-curvature="0" /></g><g
           id="g62"
           transform="translate(410.1025,302.0206)"><path
             d="M 0,0 H -3.218 V 1.652 H 5.016 V 0 H 1.798 V -8.495 H 0 Z"
             style="fill:#5b6770;fill-opacity:1;fill-rule:nonzero;stroke:none"
             id="path64"
             inkscape:connector-curvature="0" /></g><g
           id="g66"
           transform="translate(420.3252,297.8893)"><path
             d="M 0,0 C -0.116,1.131 -0.783,2.015 -1.942,2.015 -3.016,2.015 -3.77,1.188 -3.929,0 Z m -5.668,-0.565 v 0.028 c 0,2.189 1.551,3.987 3.739,3.987 2.436,0 3.668,-1.913 3.668,-4.117 0,-0.159 -0.014,-0.319 -0.029,-0.493 h -5.624 c 0.188,-1.246 1.072,-1.943 2.203,-1.943 0.856,0 1.464,0.32 2.073,0.914 l 1.03,-0.914 c -0.726,-0.869 -1.726,-1.434 -3.132,-1.434 -2.218,0 -3.928,1.608 -3.928,3.972"
             style="fill:#5b6770;fill-opacity:1;fill-rule:nonzero;stroke:none"
             id="path68"
             inkscape:connector-curvature="0" /></g><g
           id="g70"
           transform="translate(423.3564,297.3092)"><path
             d="M 0,0 V 0.029 C 0,2.204 1.682,4.03 3.972,4.03 5.421,4.03 6.32,3.494 7.03,2.711 L 5.943,1.537 C 5.406,2.102 4.841,2.494 3.957,2.494 2.682,2.494 1.754,1.392 1.754,0.058 V 0.029 c 0,-1.363 0.942,-2.465 2.29,-2.465 0.826,0 1.435,0.392 1.986,0.957 L 7.088,-2.522 C 6.334,-3.363 5.45,-3.957 3.957,-3.957 1.682,-3.957 0,-2.175 0,0"
             style="fill:#5b6770;fill-opacity:1;fill-rule:nonzero;stroke:none"
             id="path72"
             inkscape:connector-curvature="0" /></g><g
           id="g74"
           transform="translate(431.998,304.108)"><path
             d="m 0,0 h 1.754 v -4.117 c 0.493,0.725 1.203,1.348 2.392,1.348 1.725,0 2.725,-1.159 2.725,-2.942 v -4.871 H 5.117 v 4.349 c 0,1.189 -0.595,1.87 -1.638,1.87 -1.014,0 -1.725,-0.711 -1.725,-1.899 v -4.32 H 0 Z"
             style="fill:#5b6770;fill-opacity:1;fill-rule:nonzero;stroke:none"
             id="path76"
             inkscape:connector-curvature="0" /></g><g
           id="g78"
           transform="translate(440.915,301.1798)"><path
             d="M 0,0 H 1.754 V -1.188 C 2.247,-0.464 2.957,0.16 4.146,0.16 5.871,0.16 6.871,-1 6.871,-2.783 V -7.654 H 5.117 v 4.349 c 0,1.189 -0.595,1.87 -1.638,1.87 -1.014,0 -1.725,-0.711 -1.725,-1.899 v -4.32 H 0 Z"
             style="fill:#5b6770;fill-opacity:1;fill-rule:nonzero;stroke:none"
             id="path80"
             inkscape:connector-curvature="0" /></g><g
           id="g82"
           transform="translate(455.8203,297.3092)"><path
             d="m 0,0 v 0.029 c 0,1.348 -0.972,2.465 -2.349,2.465 -1.406,0 -2.304,-1.102 -2.304,-2.436 V 0.029 c 0,-1.334 0.97,-2.465 2.334,-2.465 C -0.899,-2.436 0,-1.319 0,0 m -6.407,0 v 0.029 c 0,2.189 1.739,4.001 4.088,4.001 2.347,0 4.073,-1.783 4.073,-3.972 V 0.029 c 0,-2.175 -1.74,-3.986 -4.103,-3.986 -2.334,0 -4.058,1.782 -4.058,3.957"
             style="fill:#5b6770;fill-opacity:1;fill-rule:nonzero;stroke:none"
             id="path84"
             inkscape:connector-curvature="0" /></g><path
           d="m 459.403,304.108 h 1.754 v -10.582 h -1.754 z"
           style="fill:#5b6770;fill-opacity:1;fill-rule:nonzero;stroke:none"
           id="path86"
           inkscape:connector-curvature="0" /><g
           id="g88"
           transform="translate(469.3633,297.3092)"><path
             d="m 0,0 v 0.029 c 0,1.348 -0.972,2.465 -2.349,2.465 -1.406,0 -2.304,-1.102 -2.304,-2.436 V 0.029 c 0,-1.334 0.97,-2.465 2.334,-2.465 C -0.899,-2.436 0,-1.319 0,0 m -6.407,0 v 0.029 c 0,2.189 1.739,4.001 4.088,4.001 2.347,0 4.073,-1.783 4.073,-3.972 V 0.029 c 0,-2.175 -1.74,-3.986 -4.103,-3.986 -2.334,0 -4.058,1.782 -4.058,3.957"
             style="fill:#5b6770;fill-opacity:1;fill-rule:nonzero;stroke:none"
             id="path90"
             inkscape:connector-curvature="0" /></g><g
           id="g92"
           transform="translate(478.6426,297.7155)"><path
             d="m 0,0 v 0.029 c 0,1.261 -1.029,2.116 -2.247,2.116 -1.218,0 -2.175,-0.84 -2.175,-2.102 V 0.014 c 0,-1.261 0.972,-2.117 2.175,-2.117 C -1.029,-2.103 0,-1.232 0,0 m -5.813,-5.625 0.652,1.319 c 0.811,-0.507 1.682,-0.811 2.725,-0.811 1.566,0 2.421,0.811 2.421,2.347 v 0.595 C -0.652,-3.001 -1.45,-3.581 -2.711,-3.581 -4.509,-3.581 -6.19,-2.247 -6.19,0 v 0.029 c 0,2.261 1.696,3.595 3.479,3.595 1.29,0 2.087,-0.595 2.682,-1.305 v 1.145 h 1.754 v -6.088 c 0,-1.29 -0.333,-2.247 -0.971,-2.885 -0.696,-0.696 -1.769,-1.029 -3.147,-1.029 -1.26,0 -2.434,0.319 -3.42,0.913"
             style="fill:#5b6770;fill-opacity:1;fill-rule:nonzero;stroke:none"
             id="path94"
             inkscape:connector-curvature="0" /></g><path
           d="m 482.588,301.18 h 1.754 v -7.654 h -1.754 z m -0.072,2.841 h 1.885 v -1.667 h -1.885 z"
           style="fill:#5b6770;fill-opacity:1;fill-rule:nonzero;stroke:none"
           id="path96"
           inkscape:connector-curvature="0" /><g
           id="g98"
           transform="translate(491.8232,297.8893)"><path
             d="M 0,0 C -0.116,1.131 -0.783,2.015 -1.942,2.015 -3.016,2.015 -3.77,1.188 -3.929,0 Z m -5.668,-0.565 v 0.028 c 0,2.189 1.551,3.987 3.739,3.987 2.436,0 3.668,-1.913 3.668,-4.117 0,-0.159 -0.014,-0.319 -0.029,-0.493 h -5.624 c 0.188,-1.246 1.072,-1.943 2.203,-1.943 0.856,0 1.464,0.32 2.073,0.914 l 1.03,-0.914 c -0.726,-0.869 -1.726,-1.434 -3.132,-1.434 -2.218,0 -3.928,1.608 -3.928,3.972"
             style="fill:#5b6770;fill-opacity:1;fill-rule:nonzero;stroke:none"
             id="path100"
             inkscape:connector-curvature="0" /></g><g
           id="g102"
           transform="translate(494.6523,294.526)"><path
             d="M 0,0 0.782,1.188 C 1.609,0.565 2.508,0.246 3.29,0.246 c 0.754,0 1.189,0.319 1.189,0.826 v 0.03 c 0,0.594 -0.812,0.797 -1.71,1.073 C 1.638,2.494 0.377,2.958 0.377,4.421 v 0.03 c 0,1.449 1.203,2.333 2.725,2.333 0.957,0 2.001,-0.333 2.812,-0.869 L 5.219,4.668 C 4.479,5.117 3.696,5.393 3.059,5.393 2.377,5.393 1.985,5.074 1.985,4.625 V 4.595 C 1.985,4.044 2.813,3.813 3.711,3.523 4.827,3.175 6.088,2.667 6.088,1.29 V 1.261 C 6.088,-0.348 4.842,-1.146 3.247,-1.146 2.16,-1.146 0.957,-0.754 0,0"
             style="fill:#5b6770;fill-opacity:1;fill-rule:nonzero;stroke:none"
             id="path104"
             inkscape:connector-curvature="0" /></g></g></g></g></svg>